<svg xmlns="http://www.w3.org/2000/svg" viewBox="0 0 980 500" width="980" height="500">
<defs><marker id="head" viewBox="0 0 10 10" refX="9" refY="5" markerWidth="7" markerHeight="7" orient="auto-start-reverse"><path d="M0,0 L10,5 L0,10 z" fill="#7D8DAA"/></marker><marker id="headRed" viewBox="0 0 10 10" refX="9" refY="5" markerWidth="7" markerHeight="7" orient="auto-start-reverse"><path d="M0,0 L10,5 L0,10 z" fill="#D9453A"/></marker><marker id="headGreen" viewBox="0 0 10 10" refX="9" refY="5" markerWidth="7" markerHeight="7" orient="auto-start-reverse"><path d="M0,0 L10,5 L0,10 z" fill="#2CA85C"/></marker><marker id="headGold" viewBox="0 0 10 10" refX="9" refY="5" markerWidth="7" markerHeight="7" orient="auto-start-reverse"><path d="M0,0 L10,5 L0,10 z" fill="#DC961A"/></marker></defs>
<rect width="980" height="500" fill="#FFFFFF"/>
<rect x="14" y="14" width="272" height="472" rx="16" fill="#F5F9FE" stroke="#16295C" stroke-width="1.5"/><text x="30" y="40" text-anchor="start" font-family="Segoe UI, Arial, sans-serif" font-size="12" font-weight="700" fill="#16295C" letter-spacing="1.2">IN THE REPOSITORY</text><rect x="354" y="14" width="272" height="472" rx="16" fill="#F5F9FE" stroke="#5A6B8C" stroke-width="1.5"/><text x="370" y="40" text-anchor="start" font-family="Segoe UI, Arial, sans-serif" font-size="12" font-weight="700" fill="#5A6B8C" letter-spacing="1.2">HOW IT REACHES A BROWSER</text><rect x="694" y="14" width="272" height="472" rx="16" fill="#F5F9FE" stroke="#2A6FD6" stroke-width="1.5"/><text x="710" y="40" text-anchor="start" font-family="Segoe UI, Arial, sans-serif" font-size="12" font-weight="700" fill="#2A6FD6" letter-spacing="1.2">ON THE PLAYER’S DEVICE</text><rect x="30" y="62" width="240" height="58" rx="12" fill="#FFFFFF" stroke="#2A6FD6" stroke-width="2"/><text x="150" y="87.5" text-anchor="middle" font-family="Segoe UI, Arial, sans-serif" font-size="16" font-weight="700" fill="#16295C">src/*.js — 24 files</text><text x="150" y="106.5" text-anchor="middle" font-family="Segoe UI, Arial, sans-serif" font-size="12" font-weight="400" fill="#5A6B8C">one MSM namespace, no modules</text><rect x="30" y="144" width="240" height="58" rx="12" fill="#FFFFFF" stroke="#2A6FD6" stroke-width="2"/><text x="150" y="169.5" text-anchor="middle" font-family="Segoe UI, Arial, sans-serif" font-size="16" font-weight="700" fill="#16295C">index.html</text><text x="150" y="188.5" text-anchor="middle" font-family="Segoe UI, Arial, sans-serif" font-size="12" font-weight="400" fill="#5A6B8C">CSP · the script list · the HUD</text><rect x="30" y="262" width="240" height="58" rx="12" fill="#16295C" stroke="#16295C" stroke-width="2"/><text x="150" y="287.5" text-anchor="middle" font-family="Segoe UI, Arial, sans-serif" font-size="16" font-weight="700" fill="#FFFFFF">tools/build.mjs</text><text x="150" y="306.5" text-anchor="middle" font-family="Segoe UI, Arial, sans-serif" font-size="12" font-weight="400" fill="#C9D8F2">esbuild · one strict closure</text><rect x="30" y="380" width="240" height="58" rx="12" fill="#EAF3FD" stroke="#2A6FD6" stroke-width="2"/><text x="150" y="405.5" text-anchor="middle" font-family="Segoe UI, Arial, sans-serif" font-size="16" font-weight="700" fill="#16295C">dist/</text><text x="150" y="424.5" text-anchor="middle" font-family="Segoe UI, Arial, sans-serif" font-size="12" font-weight="400" fill="#5A6B8C">game.&lt;hash&gt;.js · no source map</text><path d="M150,202 L150,258" fill="none" stroke="#7D8DAA" stroke-width="2.2" marker-end="url(#head)"/><text x="158" y="238" text-anchor="start" font-family="Segoe UI, Arial, sans-serif" font-size="11.5" font-weight="400" fill="#5A6B8C" letter-spacing="0">joins the files it lists</text><path d="M150,320 L150,376" fill="none" stroke="#7D8DAA" stroke-width="2.2" marker-end="url(#head)"/><rect x="370" y="100" width="240" height="58" rx="12" fill="#FFFFFF" stroke="#7D8DAA" stroke-width="2"/><text x="490" y="125.5" text-anchor="middle" font-family="Segoe UI, Arial, sans-serif" font-size="16" font-weight="700" fill="#16295C">Development</text><text x="490" y="144.5" text-anchor="middle" font-family="Segoe UI, Arial, sans-serif" font-size="12" font-weight="400" fill="#5A6B8C">npm start · or double-click</text><rect x="370" y="262" width="240" height="58" rx="12" fill="#FFFFFF" stroke="#7D8DAA" stroke-width="2"/><text x="490" y="287.5" text-anchor="middle" font-family="Segoe UI, Arial, sans-serif" font-size="16" font-weight="700" fill="#16295C">GitHub Actions</text><text x="490" y="306.5" text-anchor="middle" font-family="Segoe UI, Arial, sans-serif" font-size="12" font-weight="400" fill="#5A6B8C">on push to main: ci + build</text><rect x="370" y="380" width="240" height="58" rx="12" fill="#FFFFFF" stroke="#7D8DAA" stroke-width="2"/><text x="490" y="405.5" text-anchor="middle" font-family="Segoe UI, Arial, sans-serif" font-size="16" font-weight="700" fill="#16295C">GitHub Pages</text><text x="490" y="424.5" text-anchor="middle" font-family="Segoe UI, Arial, sans-serif" font-size="12" font-weight="400" fill="#5A6B8C">serves dist/ and nothing else</text><path d="M270,91 L310,91 L310,129 L366,129" fill="none" stroke="#7D8DAA" stroke-width="2.2" marker-end="url(#head)"/><path d="M370,291 L274,291" fill="none" stroke="#7D8DAA" stroke-width="2.2" stroke-dasharray="7 6" marker-end="url(#head)"/><text x="320" y="282" text-anchor="middle" font-family="Segoe UI, Arial, sans-serif" font-size="11.5" font-weight="400" fill="#5A6B8C" letter-spacing="0">runs</text><path d="M270,409 L366,409" fill="none" stroke="#7D8DAA" stroke-width="2.2" marker-end="url(#head)"/><rect x="710" y="62" width="240" height="70" rx="12" fill="#16295C" stroke="#16295C" stroke-width="2"/><text x="830" y="85" text-anchor="middle" font-family="Segoe UI, Arial, sans-serif" font-size="16" font-weight="700" fill="#FFFFFF">The game</text><text x="830" y="103" text-anchor="middle" font-family="Segoe UI, Arial, sans-serif" font-size="12" font-weight="400" fill="#C9D8F2">release: no globals at all</text><text x="830" y="121" text-anchor="middle" font-family="Segoe UI, Arial, sans-serif" font-size="12" font-weight="400" fill="#C9D8F2">dev: window.MSM, for debugging</text><path d="M710,176 L710,234 A120,10 0 0 0 950,234 L950,176" fill="#EAF3FD" stroke="#2A6FD6" stroke-width="2"/><ellipse cx="830" cy="176" rx="120" ry="10" fill="#FFFFFF" stroke="#2A6FD6" stroke-width="2"/><text x="830" y="198" text-anchor="middle" font-family="Segoe UI, Arial, sans-serif" font-size="15" font-weight="700" fill="#16295C">localStorage</text><text x="830" y="216" text-anchor="middle" font-family="Segoe UI, Arial, sans-serif" font-size="12.5" font-weight="400" fill="#5A6B8C">msm.save.v12 · sealed</text><text x="830" y="234" text-anchor="middle" font-family="Segoe UI, Arial, sans-serif" font-size="12.5" font-weight="400" fill="#5A6B8C">every 10 s and on leaving</text><rect x="710" y="282" width="240" height="58" rx="12" fill="#FFFFFF" stroke="#2A6FD6" stroke-width="2"/><text x="830" y="307.5" text-anchor="middle" font-family="Segoe UI, Arial, sans-serif" font-size="16" font-weight="700" fill="#16295C">Export / Import</text><text x="830" y="326.5" text-anchor="middle" font-family="Segoe UI, Arial, sans-serif" font-size="12" font-weight="400" fill="#5A6B8C">a dated .json, sealed</text><path d="M710,382 L710,446 A120,10 0 0 0 950,446 L950,382" fill="#FFFFFF" stroke="#2A6FD6" stroke-width="2" stroke-dasharray="7 5"/><ellipse cx="830" cy="382" rx="120" ry="10" fill="#F5F9FE" stroke="#2A6FD6" stroke-width="2" stroke-dasharray="7 5"/><text x="830" y="407" text-anchor="middle" font-family="Segoe UI, Arial, sans-serif" font-size="15" font-weight="700" fill="#16295C">Google Drive</text><text x="830" y="425" text-anchor="middle" font-family="Segoe UI, Arial, sans-serif" font-size="12.5" font-weight="400" fill="#5A6B8C">optional · drive.file scope</text><text x="830" y="443" text-anchor="middle" font-family="Segoe UI, Arial, sans-serif" font-size="12.5" font-weight="400" fill="#5A6B8C">your own folder</text><path d="M610,129 L706,110" fill="none" stroke="#7D8DAA" stroke-width="2.2" stroke-dasharray="7 6" marker-end="url(#head)"/><path d="M610,409 L660,409 L660,118 L706,118" fill="none" stroke="#7D8DAA" stroke-width="2.2" marker-end="url(#head)"/><path d="M830,132 L830,162" fill="none" stroke="#7D8DAA" stroke-width="2.2" marker-end="url(#head)"/><path d="M934,132 L934,150 L962,150 L962,311 L954,311" fill="none" stroke="#7D8DAA" stroke-width="2.2" marker-end="url(#head)"/><path d="M726,132 L726,150 L698,150 L698,414 L706,414" fill="none" stroke="#7D8DAA" stroke-width="2.2" stroke-dasharray="7 6" marker-end="url(#head)"/>
</svg>
